<svg width="29" height="23" viewBox="0 0 29 23" fill="none" xmlns="http://www.w3.org/2000/svg">
<path d="M28.1233 9.54689V10.3281C28.1233 10.9754 27.5987 11.5 26.9515 11.5H26.561L25.2861 20.4252C25.1212 21.5798 24.1324 22.4375 22.9662 22.4375H5.15889C3.99268 22.4375 3.00394 21.5798 2.83897 20.4252L1.56413 11.5H1.17356C0.526423 11.5 0.00183105 10.9754 0.00183105 10.3281V9.54689C0.00183105 8.89967 0.526423 8.37502 1.17356 8.37502H4.46127L9.67448 1.20602C10.182 0.508171 11.159 0.353825 11.8569 0.861393C12.5547 1.36896 12.709 2.34616 12.2015 3.04406L8.32485 8.37502H19.8002L15.9236 3.04401C15.4161 2.34616 15.5705 1.36891 16.2683 0.861344C16.966 0.353776 17.9432 0.508073 18.4507 1.20597L23.6638 8.37502H26.9515C27.5987 8.37502 28.1233 8.89967 28.1233 9.54689ZM15.2343 18.1406V12.6719C15.2343 12.0247 14.7097 11.5 14.0625 11.5C13.4154 11.5 12.8908 12.0247 12.8908 12.6719V18.1406C12.8908 18.7879 13.4154 19.3125 14.0625 19.3125C14.7097 19.3125 15.2343 18.7879 15.2343 18.1406ZM20.7023 18.1406V12.6719C20.7023 12.0247 20.1777 11.5 19.5306 11.5C18.8835 11.5 18.3589 12.0247 18.3589 12.6719V18.1406C18.3589 18.7879 18.8835 19.3125 19.5306 19.3125C20.1777 19.3125 20.7023 18.7879 20.7023 18.1406ZM9.76622 18.1406V12.6719C9.76622 12.0247 9.24162 11.5 8.59449 11.5C7.94735 11.5 7.42276 12.0247 7.42276 12.6719V18.1406C7.42276 18.7879 7.94735 19.3125 8.59449 19.3125C9.24162 19.3125 9.76622 18.7879 9.76622 18.1406Z" fill="#EEEEEE"/>
</svg>
